{"title":"Jolene.2008.DVDRiP.x264.AC3.NORDIC.mkv.Zen_Bud","uid":5811773,"size":1385391767,"categoryP":"video","categoryS":"movies","magnet":"?xt=urn:btih:297b6b99c99c81676a6fa4816ef4f5e7ef18222d&amp;dn=Jolene.2008.DVDRiP.x264.AC3.NORDIC.mkv.Zen_Bud&amp;tr=udp%3A%2F%2Ftracker.openbittorrent.com%3A80&amp;tr=udp%3A%2F%2Fopen.demonii.com%3A1337&amp;tr=udp%3A%2F%2Ftracker.coppersurfer.tk%3A6969&amp;tr=udp%3A%2F%2Fexodus.desync.com%3A6969","seeders":0,"leechers":1,"uploader":"Zen_Bud","files":-1,"time":1283670385,"description":"\n***** Jolene.2008.DVDRiP.x264.AC3.NORDIC.mkv.Zen_Bud.mkv *****\n\nFormat                           : Matroska\nFile size                        : 1.29 GiB\nDuration                         : 1h 55mn\nOverall bit rate                 : 1 594 Kbps\nWriting application              : HandBrake 0.9.4\n\nVideo\n\nFormat                           : AVC\nBit rate                         : 1 114 Kbps\nWidth                            : 720 pixels\nHeight                           : 436 pixels\nDisplay aspect ratio             : 2.35:1\nStream size                      : 923 MiB (70%)\nWriting library                  : x264 core 79\n\n\nAudio\n\nFormat                           : AC-3\nDuration                         : 1h 55mn\nBit rate                         : 448 Kbps\nChannel(s)                       : 6 channels\nChannel positions                : Front: L C R, Side: L R, LFE\nSampling rate                    : 48.0 KHz\nBit depth                        : 16 bits\nStream size                      : 371 MiB (28%)\nLanguage                         : English\n\nText #1\nLanguage                         : Swedish\n\nText #2\nLanguage                         : Norwegian\n\nText #3\nLanguage                         : Danish\n\nText #4\nLanguage                         : Finnish\n\nMenu\n00:00:00.000                     : Chapter 1\n00:06:12.080                     : Chapter 2\n\n\n","torrent":{"xt":"urn:btih:297b6b99c99c81676a6fa4816ef4f5e7ef18222d","amp;dn":"Jolene.2008.DVDRiP.x264.AC3.NORDIC.mkv.Zen_Bud","amp;tr":["udp%3A%2F%2Ftracker.openbittorrent.com%3A80","udp%3A%2F%2Fopen.demonii.com%3A1337","udp%3A%2F%2Ftracker.coppersurfer.tk%3A6969","udp%3A%2F%2Fexodus.desync.com%3A6969"],"infoHash":"297b6b99c99c81676a6fa4816ef4f5e7ef18222d","infoHashBuffer":{"type":"Buffer","data":[41,123,107,153,201,156,129,103,106,111,164,129,110,244,245,231,239,24,34,45]},"announce":[],"urlList":[]}}